<svg id="图层_1" data-name="图层 1" xmlns="http://www.w3.org/2000/svg" width="180" height="60" viewBox="0 0 180 60">
  <defs>
    <style>
      .cls-1, .cls-2 {
        fill: #858585;
      }

      .cls-2 {
        fill-rule: evenodd;
      }

      .cls-3 {
        fill: #151515;
      }

      .cls-4 {
        fill: #fff;
      }
    </style>
  </defs>
  <title>属性面板图标</title>
  <g>
    <path class="cls-1" d="M5.87,10.94v2.83h-1V6.2H7a2.8,2.8,0,0,1,1.9.59,2.12,2.12,0,0,1,.68,1.69,2.28,2.28,0,0,1-.79,1.8,2.75,2.75,0,0,1-2,.65Zm0-3.88v3h.9a2,2,0,0,0,1.36-.4,1.45,1.45,0,0,0,.46-1.15q0-1.46-1.73-1.46Z"/>
    <path class="cls-1" d="M16,13.77H14.83l-1.69-2.85a2.92,2.92,0,0,1-.17-.39h0s-.06.16-.18.4L11,13.77H9.84L12.35,10,10,6.2h1.2l1.49,2.62a5.17,5.17,0,0,1,.26.54h0a6.24,6.24,0,0,1,.29-.56L14.86,6.2H16L13.62,10Z"/>
  </g>
  <path class="cls-2" d="M77.5,5.5v-3h-3v1h-3v-1h-3v1h-3v-1h-3v3h1v3h-1v3h1v3h-1v3h3v-1h3v1h3v-1h3v1h3v-3h-1v-3h1v-3h-1v-3Zm-2,3h-1v3h1v3h-1v1h-3v-1h-3v1h-3v-1h-1v-3h1v-3h-1v-3h1v-1h3v1h3v-1h3v1h1Zm-7,3h3v-3h-3Z"/>
  <path class="cls-1" d="M92.83,10a1.62,1.62,0,1,0-1.62,1.67A1.65,1.65,0,0,0,92.83,10ZM91.21,2.5A7.4,7.4,0,0,0,83.93,10H81.5l3.24,3.33L88,10H85.55a5.67,5.67,0,1,1,11.33,0,5.75,5.75,0,0,1-5.67,5.83,5.59,5.59,0,0,1-3.29-1.08L86.78,16a7.16,7.16,0,0,0,4.44,1.55A7.4,7.4,0,0,0,98.5,10,7.4,7.4,0,0,0,91.21,2.5Z"/>
  <path class="cls-1" d="M112.89,13.5h-3.11a3.32,3.32,0,0,1-3.11-3.5,3.88,3.88,0,0,1,.11-.87h1.45a.67.67,0,0,1,.2,0,1.89,1.89,0,0,0-.2.83,1.66,1.66,0,0,0,1.56,1.75h3.11A1.66,1.66,0,0,0,114.44,10a1.66,1.66,0,0,0-1.56-1.75h-1.11a4.33,4.33,0,0,0-1.25-1.75h2.36A3.32,3.32,0,0,1,116,10,3.32,3.32,0,0,1,112.89,13.5Zm-6.67-1.75h-1.11A1.66,1.66,0,0,1,103.56,10a1.66,1.66,0,0,1,1.56-1.75h3.11A1.66,1.66,0,0,1,109.78,10a1.9,1.9,0,0,1-.19.83.66.66,0,0,0,.19,0h1.45a3.83,3.83,0,0,0,.11-.87,3.32,3.32,0,0,0-3.11-3.5h-3.11A3.32,3.32,0,0,0,102,10a3.32,3.32,0,0,0,3.11,3.5h2.36A4.33,4.33,0,0,1,106.22,11.75Z"/>
  <path class="cls-1" d="M33.5,3.83A1.5,1.5,0,1,1,32,5.33a1.5,1.5,0,0,1,1.5-1.5m0-1A2.5,2.5,0,1,0,36,5.33a2.5,2.5,0,0,0-2.5-2.5Z"/>
  <g>
    <path class="cls-1" d="M50.91,9.48a2.22,2.22,0,0,0,.53-1.53A2.15,2.15,0,0,0,51,6.46a1.73,1.73,0,0,0-1.35-.54,1.84,1.84,0,0,0-1.43.59,2.25,2.25,0,0,0-.53,1.56,2.1,2.1,0,0,0,.5,1.46,1.73,1.73,0,0,0,1.34.56A1.81,1.81,0,0,0,50.91,9.48Zm-2-2.39a.79.79,0,0,1,.67-.31.75.75,0,0,1,.64.3,1.47,1.47,0,0,1,.24.9,1.52,1.52,0,0,1-.24.92.76.76,0,0,1-.65.3.78.78,0,0,1-.65-.29A1.41,1.41,0,0,1,48.65,8,1.47,1.47,0,0,1,48.9,7.1Z"/>
    <path class="cls-1" d="M55.48,10.33a1.73,1.73,0,0,0-1.35-.55,1.82,1.82,0,0,0-1.42.6,2.27,2.27,0,0,0-.53,1.56,2.11,2.11,0,0,0,.5,1.45A1.72,1.72,0,0,0,54,14a1.82,1.82,0,0,0,1.41-.59A2.2,2.2,0,0,0,56,11.84,2.18,2.18,0,0,0,55.48,10.33Zm-.75,2.44a.76.76,0,0,1-.65.31.78.78,0,0,1-.65-.3,1.4,1.4,0,0,1-.25-.88,1.5,1.5,0,0,1,.25-.92.79.79,0,0,1,.67-.31.75.75,0,0,1,.63.29,1.43,1.43,0,0,1,.24.89A1.52,1.52,0,0,1,54.72,12.78Z"/>
    <polygon class="cls-1" points="53.72 6.03 48.7 13.89 49.82 13.89 54.84 6.03 53.72 6.03"/>
  </g>
  <rect class="cls-3" x="100" y="24.5" width="18" height="11" rx="1.8" ry="1.8"/>
  <path class="cls-1" d="M112.89,33.5h-3.11a3.32,3.32,0,0,1-3.11-3.5,3.88,3.88,0,0,1,.11-.87h1.45a.67.67,0,0,1,.2,0,1.89,1.89,0,0,0-.2.83,1.66,1.66,0,0,0,1.56,1.75h3.11a1.76,1.76,0,0,0,0-3.5h-1.11a4.33,4.33,0,0,0-1.25-1.75h2.36A3.32,3.32,0,0,1,116,30,3.32,3.32,0,0,1,112.89,33.5Zm-6.67-1.75h-1.11a1.76,1.76,0,0,1,0-3.5h3.11A1.66,1.66,0,0,1,109.78,30a1.9,1.9,0,0,1-.19.83.66.66,0,0,0,.19,0h1.45a3.83,3.83,0,0,0,.11-.87,3.32,3.32,0,0,0-3.11-3.5h-3.11A3.32,3.32,0,0,0,102,30a3.32,3.32,0,0,0,3.11,3.5h2.36A4.33,4.33,0,0,1,106.22,31.75Z"/>
  <rect class="cls-3" x="100" y="44.5" width="18" height="11" rx="1.8" ry="1.8"/>
  <path class="cls-4" d="M112.89,53.5h-3.11a3.32,3.32,0,0,1-3.11-3.5,3.88,3.88,0,0,1,.11-.87h1.45a.67.67,0,0,1,.2,0,1.89,1.89,0,0,0-.2.83,1.66,1.66,0,0,0,1.56,1.75h3.11a1.76,1.76,0,0,0,0-3.5h-1.11a4.33,4.33,0,0,0-1.25-1.75h2.36a3.52,3.52,0,0,1,0,7Zm-6.67-1.75h-1.11a1.76,1.76,0,0,1,0-3.5h3.11A1.66,1.66,0,0,1,109.78,50a1.9,1.9,0,0,1-.19.83.66.66,0,0,0,.19,0h1.45a3.83,3.83,0,0,0,.11-.87,3.32,3.32,0,0,0-3.11-3.5h-3.11a3.52,3.52,0,0,0,0,7h2.36A4.33,4.33,0,0,1,106.22,51.75Z"/>
  <g>
    <rect class="cls-1" x="124.02" y="4" width="1" height="12"/>
    <rect class="cls-1" x="135.02" y="4" width="1" height="12"/>
    <rect class="cls-1" x="129.52" y="6.31" width="1" height="7.39" transform="translate(120.02 140.02) rotate(-90)"/>
    <polygon class="cls-1" points="125.02 9.91 128.02 7.41 128.02 12.41 125.02 9.91"/>
    <polygon class="cls-1" points="135.02 9.91 132.02 12.41 132.02 7.41 135.02 9.91"/>
  </g>
  <g>
    <rect class="cls-1" x="149.53" y="-1.5" width="1" height="12" transform="translate(154.53 -145.53) rotate(90)"/>
    <rect class="cls-1" x="149.53" y="9.5" width="1" height="12" transform="translate(165.53 -134.53) rotate(90)"/>
    <rect class="cls-1" x="149.53" y="6.31" width="1" height="7.39"/>
    <polygon class="cls-1" points="150.13 5 152.63 8 147.63 8 150.13 5"/>
    <polygon class="cls-1" points="150.13 15 147.63 12 152.63 12 150.13 15"/>
  </g>
  <path class="cls-1" d="M174.17,8.45h-.92a1.6,1.6,0,0,0-.47-1,1.67,1.67,0,0,0-1.11-.33,1.5,1.5,0,0,0-1,.28.87.87,0,0,0-.39.75.9.9,0,0,0,.52.78,8,8,0,0,0,1.26.47,5.05,5.05,0,0,1,1.56.67,1.74,1.74,0,0,1,.73,1.47c0,1.47-.86,2.22-2.57,2.22a2.38,2.38,0,0,1-2.61-2.48h.92a2,2,0,0,0,.5,1.22,1.75,1.75,0,0,0,1.16.33c1.08,0,1.63-.42,1.63-1.22a1,1,0,0,0-.58-.93,7.91,7.91,0,0,0-1.29-.46A4.73,4.73,0,0,1,170,9.6a1.6,1.6,0,0,1-.69-1.4A1.73,1.73,0,0,1,170,6.76a2.49,2.49,0,0,1,1.67-.54A2.23,2.23,0,0,1,174.17,8.45Z"/>
</svg>
